# Wavefront OBJ
# Created by fragMOTION 1.3.5
# http://www.fragmosoft.com

mtllib monitor.mtl
# 88 vertices
v -38.3962 -26.4356 3.94165
v 38.7794 -26.4356 3.94165
v 39.1971 -25.9911 3.94165
v 39.1971 25.4652 3.94164
v 38.7794 25.9098 3.94164
v -38.3962 25.9098 3.94164
v -38.8139 25.4652 3.94164
v -38.8139 -25.9911 3.94165
v -36.8433 -24.3385 0.661301
v -36.8433 23.8126 0.661293
v 37.2265 23.8126 0.661297
v 37.2265 -24.3385 0.661304
v -38.8139 25.4652 -0.498676
v -38.8139 -25.9911 -0.498669
v 38.7794 25.9098 -0.498674
v -38.3962 25.9098 -0.498676
v 39.1971 -25.9911 -0.498665
v 39.1971 25.4652 -0.498674
v -38.3962 -26.4356 -0.498669
v 38.7794 -26.4356 -0.498665
v -38.5185 25.5954 -0.498676
v -36.8433 23.8126 -0.498676
v -36.8433 -24.3385 -0.498669
v -38.5185 -26.1213 -0.498669
v 38.9017 25.5954 -0.498674
v 37.2265 23.8126 -0.498672
v 38.9017 -26.1213 -0.498665
v 37.2265 -24.3385 -0.498667
v -27.067 -26.774 -0.791359
v -25.0823 -26.774 -0.791359
v -25.0823 -26.774 -0.053381
v -27.067 -26.774 -0.0533829
v -27.067 -25.7234 -0.791359
v -27.067 -25.7234 -0.0533829
v -25.0823 -25.7234 -0.053381
v -25.0823 -25.7234 -0.791359
v -29.4847 -26.774 -0.791359
v -27.5001 -26.774 -0.791359
v -27.5001 -26.774 -0.0533829
v -29.4847 -26.774 -0.0533829
v -29.4847 -25.7234 -0.791359
v -29.4847 -25.7234 -0.0533829
v -27.5001 -25.7234 -0.0533829
v -27.5001 -25.7234 -0.791359
v -34.6029 -26.774 -0.791359
v -30.096 -26.774 -0.791359
v -30.096 -26.774 -0.0533829
v -34.6029 -26.774 -0.0533829
v -34.6029 -25.7234 -0.791359
v -34.6029 -25.7234 -0.0533829
v -30.096 -25.7234 -0.0533829
v -30.096 -25.7234 -0.791359
v -19.506 -12.3192 8.01293
v 19.8892 -12.3192 8.01293
v 19.8892 12.2865 8.01293
v -19.506 12.2865 8.01293
v -26.6072 -19.4205 6.75994
v -26.6072 19.3877 6.75994
v -26.6072 19.3877 3.72036
v -26.6072 -19.4205 3.72037
v 26.9905 19.3877 6.75994
v 26.9905 19.3877 3.72036
v 26.9905 -19.4205 6.75995
v 26.9905 -19.4205 3.72037
v -15.2624 -0.72253 15.5841
v -15.2624 10.3313 15.584
v -15.2624 10.3313 8.01293
v -15.2624 -0.722528 8.013
v -13.9008 10.3313 15.584
v -13.9008 10.3313 8.01293
v -13.9008 -0.72253 15.5841
v -13.9008 -0.722528 8.013
v 14.284 -0.72253 15.5841
v 14.284 10.3313 15.584
v 14.284 10.3313 8.01293
v 14.284 -0.722528 8.013
v 15.6457 10.3313 15.584
v 15.6457 10.3313 8.01293
v 15.6457 -0.72253 15.5841
v 15.6457 -0.722528 8.013
v -23.5798 13.3258 15.584
v 23.963 13.3258 15.584
v 23.963 -3.71702 15.584
v -23.5798 -3.71702 15.584
v -23.5798 -3.71702 16.9188
v -23.5798 13.3258 16.9188
v 23.963 -3.71702 16.9188
v 23.963 13.3258 16.9188
# 126 texture vertices
vt 0.545243 -0.793941
vt 0.0777078 -0.793941
vt 0.547774 -0.791248
vt 0.547774 -0.479522
vt 0.545243 -0.476829
vt 0.0777078 -0.476829
vt 0.0751772 -0.479522
vt 0.0751772 -0.791248
vt 0.588451 -0.0218187
vt 0.588451 -0.388799
vt 0.0239332 -0.0218187
vt 0.0239332 -0.388799
vt 0.666505 -0.0259777
vt 0.666505 -0.408429
vt 0.633502 -0.0259777
vt 0.633502 -0.408429
vt 0.666505 -0.412963
vt 0.666505 -0.986574
vt 0.633502 -0.412963
vt 0.633502 -0.986574
vt 0.717012 -0.412973
vt 0.717012 -0.986584
vt 0.684009 -0.412973
vt 0.684009 -0.986584
vt 0.605821 -0.439299
vt 0.605821 -0.83147
vt 0.603569 -0.438307
vt 0.590801 -0.451895
vt 0.590801 -0.818875
vt 0.603569 -0.832462
vt 0.0144488 -0.435911
vt 0.602637 -0.435911
vt 0.013516 -0.438307
vt 0.026284 -0.451895
vt 0.0112646 -0.83147
vt 0.0112646 -0.439299
vt 0.013516 -0.832462
vt 0.026284 -0.818875
vt 0.602637 -0.834858
vt 0.0144488 -0.834858
vt 0.693427 -0.0112813
vt 0.693427 -0.378261
vt 0.684586 -0.0112813
vt 0.684586 -0.378261
vt 0.729189 -0.983326
vt 0.729189 -0.418809
vt 0.73803 -0.983326
vt 0.73803 -0.418809
vt 0.666505 -0.0214437
vt 0.633502 -0.0214437
vt 0.926039 -0.294762
vt 0.926039 -0.232606
vt 0.94915 -0.294762
vt 0.94915 -0.232606
vt 0.870023 -0.232606
vt 0.893135 -0.232606
vt 0.870023 -0.294762
vt 0.893135 -0.294762
vt 0.94915 -0.199703
vt 0.926039 -0.199703
vt 0.982054 -0.294762
vt 0.982054 -0.232606
vt 0.926039 -0.327665
vt 0.94915 -0.327665
vt 0.946875 -0.127586
vt 0.946875 -0.0403128
vt 0.961166 -0.127586
vt 0.961166 -0.0403128
vt 0.912241 -0.0403128
vt 0.926531 -0.0403128
vt 0.912241 -0.127586
vt 0.926531 -0.127586
vt 0.961166 -0.0199683
vt 0.946875 -0.0199683
vt 0.981511 -0.127586
vt 0.981511 -0.0403128
vt 0.946875 -0.147931
vt 0.961166 -0.147931
vt 0.939678 -0.557766
vt 0.939678 -0.773346
vt 0.805029 -0.557766
vt 0.805029 -0.773346
vt 0.76587 -0.812506
vt 0.978838 -0.812506
vt 0.76617 -0.829439
vt 0.978538 -0.829439
vt 0.76587 -0.518606
vt 0.748936 -0.518906
vt 0.748936 -0.812206
vt 0.978838 -0.518606
vt 0.978538 -0.501673
vt 0.76617 -0.501673
vt 0.995771 -0.812206
vt 0.995771 -0.518906
vt 0.765098 -0.313145
vt 0.765099 -0.384517
vt 0.716214 -0.313145
vt 0.716214 -0.384517
vt 0.765098 -0.304353
vt 0.716214 -0.304353
vt 0.765099 -0.232981
vt 0.716214 -0.232981
vt 0.765099 -0.393309
vt 0.716214 -0.393309
vt 0.769164 -0.130271
vt 0.769165 -0.201643
vt 0.720279 -0.130271
vt 0.72028 -0.201643
vt 0.769164 -0.121479
vt 0.720279 -0.121479
vt 0.769165 -0.0501068
vt 0.72028 -0.0501068
vt 0.769165 -0.210435
vt 0.72028 -0.210435
vt 0.028091 -0.871469
vt 0.322905 -0.871469
vt 0.028091 -0.977152
vt 0.322905 -0.977152
vt 0.331183 -0.977152
vt 0.331183 -0.871469
vt 0.028091 -0.98543
vt 0.322905 -0.98543
vt 0.0198136 -0.871469
vt 0.0198136 -0.977152
vt 0.322905 -0.863192
vt 0.028091 -0.863192
# 38 normals
vn -3.70716e-008 3.48348e-008 1
vn 5.15014e-008 -1.58447e-007 -1
vn -1 0 0
vn 0.523918 0.851769 0
vn 9.88577e-008 1 0
vn 0.261959 0.965079 0
vn 0.873511 -0.486805 0
vn 0.969925 0.243402 0
vn 0.969925 -0.243402 0
vn 0.873511 0.486805 0
vn -4.94288e-008 -1 0
vn 1 0 0
vn -0.728751 0.684779 0
vn -0.728751 -0.684779 0
vn 0.728751 -0.684779 0
vn 0.408248 -0.408248 -0.816497
vn -0.666667 -0.666667 -0.333333
vn 0.666667 -0.666667 0.333333
vn -0.408249 -0.408248 0.816496
vn 0 0.707107 -0.707107
vn 0.0437312 -0.0874622 0.995207
vn -0.0699304 -0.034965 0.996939
vn 0.0699303 0.0349655 0.996939
vn -0.0437313 0.087463 0.995207
vn -0.344847 0.556291 0.756056
vn -0.556291 -0.344847 0.756056
vn 0.556291 0.344848 0.756056
vn 0.344847 -0.556291 0.756056
vn -0.447214 0.894427 -1.12665e-007
vn -0.894427 -0.447214 -2.2533e-007
vn -0.894427 0.447214 -1.12665e-007
vn -0.447214 -0.894427 -2.25328e-007
vn 0.894427 0.447214 1.12664e-007
vn 0.447214 0.894427 0
vn 0.408248 0.816497 -0.408248
vn -0.666667 0.333333 -0.666667
vn 0.666667 -0.333333 -0.666667
vn -0.408248 -0.816496 -0.408249
usemtl 01 - Default
g ROOT
s off
f 2/1/1 3/3/1 1/2/1
f 4/4/1 5/5/1 3/3/1
f 3/3/1 5/5/1 1/2/1
f 6/6/1 7/7/1 5/5/1
f 5/5/1 7/7/1 1/2/1
f 1/2/1 7/7/1 8/8/1
f 10/9/2 11/11/2 9/10/2
f 12/12/2 9/10/2 11/11/2
f 7/13/3 13/15/3 8/14/3
f 14/16/3 8/14/3 13/15/3
f 5/17/4 15/19/6 6/18/5
f 16/20/5 6/18/5 15/19/6
f 3/13/7 17/15/9 4/14/8
f 18/16/10 4/14/8 17/15/9
f 1/21/11 19/23/11 2/22/11
f 20/24/11 2/22/11 19/23/11
f 13/25/2 21/27/2 14/26/2
f 21/27/2 22/28/2 14/26/2
f 22/28/2 23/29/2 14/26/2
f 14/26/2 23/29/2 24/30/2
f 15/31/2 25/33/2 16/32/2
f 25/33/2 26/34/2 16/32/2
f 26/34/2 22/28/2 16/32/2
f 16/32/2 22/28/2 21/27/2
f 17/35/2 27/37/2 18/36/2
f 27/37/2 28/38/2 18/36/2
f 28/38/2 26/34/2 18/36/2
f 18/36/2 26/34/2 25/33/2
f 19/39/2 24/30/2 20/40/2
f 24/30/2 23/29/2 20/40/2
f 23/29/2 28/38/2 20/40/2
f 20/40/2 28/38/2 27/37/2
f 22/41/12 10/43/12 23/42/12
f 9/44/12 23/42/12 10/43/12
f 26/45/11 11/47/11 22/46/11
f 10/48/11 22/46/11 11/47/11
f 28/44/3 12/42/3 26/43/3
f 11/41/3 26/43/3 12/42/3
f 23/45/5 9/47/5 28/46/5
f 12/48/5 28/46/5 9/47/5
f 24/30/2 19/39/2 14/26/2
f 21/27/2 13/25/2 16/32/2
f 27/37/2 17/35/2 20/40/2
f 25/33/2 15/31/2 18/36/2
f 6/14/13 16/16/13 7/17/13
f 13/19/13 7/17/13 16/16/13
f 19/49/14 1/50/14 14/13/14
f 8/15/14 14/13/14 1/50/14
f 4/14/8 18/16/10 5/17/4
f 15/19/6 5/17/4 18/16/10
f 2/49/15 20/50/15 3/13/7
f 17/15/9 3/13/7 20/50/15
f 30/51/16 31/53/18 29/52/17
f 32/54/19 29/52/17 31/53/18
f 34/55/5 35/57/5 33/56/20
f 36/58/20 33/56/20 35/57/5
f 32/54/19 34/59/3 29/52/17
f 33/60/3 29/52/17 34/59/3
f 31/53/18 35/61/1 32/54/19
f 34/62/1 32/54/19 35/61/1
f 30/51/16 36/63/12 31/53/18
f 35/64/12 31/53/18 36/63/12
f 29/52/17 33/56/20 30/51/16
f 36/58/20 30/51/16 33/56/20
f 38/51/16 39/53/18 37/52/17
f 40/54/19 37/52/17 39/53/18
f 42/55/5 43/57/5 41/56/20
f 44/58/20 41/56/20 43/57/5
f 40/54/19 42/59/3 37/52/17
f 41/60/3 37/52/17 42/59/3
f 39/53/18 43/61/1 40/54/19
f 42/62/1 40/54/19 43/61/1
f 38/51/16 44/63/12 39/53/18
f 43/64/12 39/53/18 44/63/12
f 37/52/17 41/56/20 38/51/16
f 44/58/20 38/51/16 41/56/20
f 46/65/16 47/67/18 45/66/17
f 48/68/19 45/66/17 47/67/18
f 50/69/5 51/71/5 49/70/20
f 52/72/20 49/70/20 51/71/5
f 48/68/19 50/73/3 45/66/17
f 49/74/3 45/66/17 50/73/3
f 47/67/18 51/75/1 48/68/19
f 50/76/1 48/68/19 51/75/1
f 46/65/16 52/77/12 47/67/18
f 51/78/12 47/67/18 52/77/12
f 45/66/17 49/70/20 46/65/16
f 52/72/20 46/65/16 49/70/20
f 54/79/21 55/81/23 53/80/22
f 56/82/24 53/80/22 55/81/23
f 58/83/25 59/85/3 57/84/26
f 60/86/3 57/84/26 59/85/3
f 61/87/27 62/88/5 58/83/25
f 59/89/5 58/83/25 62/88/5
f 63/90/28 64/91/12 61/87/27
f 62/92/12 61/87/27 64/91/12
f 57/84/26 60/93/11 63/90/28
f 64/94/11 63/90/28 60/93/11
f 63/90/28 54/79/21 57/84/26
f 53/80/22 57/84/26 54/79/21
f 61/87/27 55/81/23 63/90/28
f 54/79/21 63/90/28 55/81/23
f 58/83/25 56/82/24 61/87/27
f 55/81/23 61/87/27 56/82/24
f 57/84/26 53/80/22 58/83/25
f 56/82/24 58/83/25 53/80/22
f 66/95/29 67/97/31 65/96/30
f 68/98/32 65/96/30 67/97/31
f 69/99/33 70/100/34 66/95/29
f 67/97/31 66/95/29 70/100/34
f 71/101/12 72/102/12 69/99/33
f 70/100/34 69/99/33 72/102/12
f 65/96/30 68/98/32 71/103/11
f 72/104/11 71/103/11 68/98/32
f 74/105/29 75/107/31 73/106/30
f 76/108/32 73/106/30 75/107/31
f 77/109/33 78/110/34 74/105/29
f 75/107/31 74/105/29 78/110/34
f 79/111/12 80/112/12 77/109/33
f 78/110/34 77/109/33 80/112/12
f 73/106/30 76/108/32 79/113/11
f 80/114/11 79/113/11 76/108/32
f 82/115/35 83/117/37 81/116/36
f 84/118/38 81/116/36 83/117/37
f 84/118/38 85/119/3 81/116/36
f 86/120/3 81/116/36 85/119/3
f 83/117/37 87/121/11 84/118/38
f 85/122/11 84/118/38 87/121/11
f 82/115/35 88/123/12 83/117/37
f 87/124/12 83/117/37 88/123/12
f 81/116/36 86/125/5 82/115/35
f 88/126/5 82/115/35 86/125/5
