# Wavefront OBJ
# Created by fragMOTION 1.3.5
# http://www.fragmosoft.com

mtllib pill.mtl
# 162 vertices
v 117.525 70.6794 -7.32233
v 117.526 72.1359 3e-006
v 122.122 53.0003 0
v 104.417 85.67 -13.5299
v 104.419 88.3613 6e-006
v 84.7944 95.6899 -17.6777
v 84.7961 99.2063 8e-006
v 61.6437 99.2137 -19.1342
v 61.6455 103.02 8e-006
v 1.14375 99.2332 -19.1342
v 1.14554 103.039 8e-006
v 1.14464 101.117 -19.9145
v -59.5983 101.135 -19.914
v -59.5964 105.096 8e-006
v 1.1465 105.078 8e-006
v -83.4676 97.5077 -18.4082
v -83.4658 101.169 8e-006
v -103.898 87.0761 -14.0846
v -103.897 89.8777 6e-006
v -117.546 71.4755 -7.62077
v -117.545 72.9914 3e-006
v -122.347 53.0789 0
v 117.523 66.5316 -13.5299
v 104.414 78.006 -25
v 84.7897 85.6763 -32.6641
v 61.6386 88.3751 -35.3553
v 1.13864 88.3945 -35.3553
v 1.13932 89.8364 -36.7973
v -59.6036 89.8549 -36.7962
v -83.4725 87.0803 -34.0139
v -103.902 79.0978 -26.0249
v -117.548 67.1587 -14.0814
v 117.52 60.3241 -17.6777
v 104.408 66.5359 -32.6641
v 84.7827 70.6899 -42.6777
v 61.631 72.1539 -46.194
v 1.13101 72.1734 -46.194
v 1.13137 72.9537 -48.0779
v -59.6116 72.9727 -48.0766
v -83.4798 71.4746 -44.4413
v -103.908 67.1575 -34.0032
v -117.551 60.6981 -18.3982
v 117.517 53.0017 -19.1342
v 104.402 53.006 -35.3553
v 84.7743 53.0123 -46.194
v 61.622 53.0197 -50
v 1.122 53.0392 -50
v 1.122 53.0392 -52.0392
v -59.6209 53.0587 -52.0377
v -83.4885 53.0664 -48.1029
v -103.914 53.073 -36.8048
v -117.554 53.0773 -19.914
v 117.513 45.6794 -17.6777
v 104.396 39.4761 -32.6641
v 84.766 35.3346 -42.6777
v 61.613 33.8856 -46.194
v 1.11299 33.905 -46.194
v 1.11262 33.1247 -48.0779
v -59.6303 33.1448 -48.0766
v -83.4972 34.6582 -44.4413
v -103.921 38.9884 -34.0032
v -117.558 45.4566 -18.3982
v 117.51 39.4718 -13.5299
v 104.39 28.006 -25
v 84.759 20.3482 -32.6641
v 61.6054 17.6644 -35.3553
v 1.10535 17.6838 -35.3553
v 1.10467 16.2419 -36.7973
v -59.6383 16.2625 -36.7962
v -83.5045 19.0525 -34.0139
v -103.927 27.0481 -26.0249
v -117.561 38.996 -14.0814
v 117.508 35.3241 -7.32233
v 104.387 20.3419 -13.5299
v 84.7543 10.3346 -17.6777
v 61.6003 6.82575 -19.1342
v 1.10025 6.84521 -19.1342
v 1.09936 4.96125 -19.9145
v -59.6436 4.98216 -19.914
v -83.5094 8.62508 -18.4082
v -103.93 19.0698 -14.0846
v -117.563 34.6792 -7.62078
v 117.508 33.8676 -3e-006
v 104.385 17.6506 -6e-006
v 84.7526 6.8183 -8e-006
v 61.5985 3.01973 -8e-006
v 1.09846 3.03918 -8e-006
v 1.0975 1 -8e-006
v -59.6454 1.02102 -8e-006
v -83.5112 4.96347 -8e-006
v -103.932 16.2682 -6e-006
v -117.564 33.1633 -3e-006
v 117.508 35.3241 7.32233
v 104.387 20.3419 13.5299
v 84.7543 10.3346 17.6777
v 61.6003 6.82574 19.1342
v 1.10025 6.8452 19.1342
v 1.09936 4.96124 19.9145
v -59.6436 4.98215 19.914
v -83.5094 8.62508 18.4082
v -103.93 19.0698 14.0846
v -117.563 34.6792 7.62077
v 117.51 39.4718 13.5299
v 104.39 28.006 25
v 84.759 20.3482 32.6641
v 61.6054 17.6644 35.3553
v 1.10535 17.6838 35.3553
v 1.10467 16.2419 36.7973
v -59.6383 16.2625 36.7962
v -83.5045 19.0525 34.0139
v -103.927 27.0481 26.0249
v -117.561 38.996 14.0814
v 117.513 45.6794 17.6777
v 104.396 39.4761 32.6641
v 84.766 35.3346 42.6777
v 61.613 33.8855 46.194
v 1.11299 33.905 46.194
v 1.11262 33.1246 48.0779
v -59.6303 33.1447 48.0766
v -83.4972 34.6582 44.4413
v -103.921 38.9884 34.0032
v -117.558 45.4566 18.3982
v 117.517 53.0017 19.1342
v 104.402 53.006 35.3553
v 84.7743 53.0123 46.194
v 61.622 53.0197 50
v 1.122 53.0392 50
v 1.122 53.0392 52.0392
v -59.6209 53.0587 52.0377
v -83.4885 53.0664 48.1029
v -103.914 53.0729 36.8048
v -117.554 53.0773 19.914
v 117.52 60.3241 17.6777
v 104.408 66.5359 32.6641
v 84.7827 70.6899 42.6777
v 61.631 72.1539 46.194
v 1.13101 72.1733 46.194
v 1.13137 72.9537 48.0779
v -59.6116 72.9727 48.0766
v -83.4798 71.4746 44.4413
v -103.908 67.1575 34.0032
v -117.551 60.6981 18.3982
v 117.523 66.5316 13.5299
v 104.414 78.006 25
v 84.7897 85.6763 32.6641
v 61.6386 88.375 35.3553
v 1.13864 88.3945 35.3553
v 1.13932 89.8364 36.7973
v -59.6036 89.8549 36.7962
v -83.4725 87.0803 34.0139
v -103.902 79.0978 26.0249
v -117.548 67.1587 14.0814
v 117.525 70.6794 7.32233
v 104.417 85.67 13.5299
v 84.7944 95.6899 17.6777
v 61.6437 99.2137 19.1342
v 1.14375 99.2331 19.1342
v 1.14464 101.117 19.9145
v -59.5983 101.135 19.914
v -83.4676 97.5077 18.4082
v -103.898 87.0761 14.0846
v -117.546 71.4755 7.62078
# 185 texture vertices
vt 0.0625 0.0762
vt 0.0312 0
vt 0 0.0762
vt 0 0.1524
vt 0.0625 0.1524
vt 0 0.2286
vt 0.0625 0.2286
vt 0 0.3047
vt 0.0625 0.3047
vt 0 0.5
vt 0.0625 0.5
vt 0 0.6953
vt 0.0625 0.6953
vt 0 0.7714
vt 0.0625 0.7714
vt 0 0.8476
vt 0.0625 0.8476
vt 0 0.9238
vt 0.0625 0.9238
vt 0.0312 1
vt 0.125 0.0762
vt 0.0938 0
vt 0.125 0.1524
vt 0.125 0.2286
vt 0.125 0.3047
vt 0.125 0.5
vt 0.125 0.6953
vt 0.125 0.7714
vt 0.125 0.8476
vt 0.125 0.9238
vt 0.0938 1
vt 0.1875 0.0762
vt 0.1562 0
vt 0.1875 0.1524
vt 0.1875 0.2286
vt 0.1875 0.3047
vt 0.1875 0.5
vt 0.1875 0.6953
vt 0.1875 0.7714
vt 0.1875 0.8476
vt 0.1875 0.9238
vt 0.1562 1
vt 0.25 0.0762
vt 0.2188 0
vt 0.25 0.1524
vt 0.25 0.2286
vt 0.25 0.3047
vt 0.25 0.5
vt 0.25 0.6953
vt 0.25 0.7714
vt 0.25 0.8476
vt 0.25 0.9238
vt 0.2188 1
vt 0.3125 0.0762
vt 0.2812 0
vt 0.3125 0.1524
vt 0.3125 0.2286
vt 0.3125 0.3047
vt 0.3125 0.5
vt 0.3125 0.6953
vt 0.3125 0.7714
vt 0.3125 0.8476
vt 0.3125 0.9238
vt 0.2812 1
vt 0.375 0.0762
vt 0.3438 0
vt 0.375 0.1524
vt 0.375 0.2286
vt 0.375 0.3047
vt 0.375 0.5
vt 0.375 0.6953
vt 0.375 0.7714
vt 0.375 0.8476
vt 0.375 0.9238
vt 0.3438 1
vt 0.4375 0.0762
vt 0.4062 0
vt 0.4375 0.1524
vt 0.4375 0.2286
vt 0.4375 0.3047
vt 0.4375 0.5
vt 0.4375 0.6953
vt 0.4375 0.7714
vt 0.4375 0.8476
vt 0.4375 0.9238
vt 0.4062 1
vt 0.5 0.0762
vt 0.4688 0
vt 0.5 0.1524
vt 0.5 0.2286
vt 0.5 0.3047
vt 0.5 0.5
vt 0.5 0.6953
vt 0.5 0.7714
vt 0.5 0.8476
vt 0.5 0.9238
vt 0.4688 1
vt 0.5625 0.0762
vt 0.5312 0
vt 0.5625 0.1524
vt 0.5625 0.2286
vt 0.5625 0.3047
vt 0.5625 0.5
vt 0.5625 0.6953
vt 0.5625 0.7714
vt 0.5625 0.8476
vt 0.5625 0.9238
vt 0.5312 1
vt 0.625 0.0762
vt 0.5938 0
vt 0.625 0.1524
vt 0.625 0.2286
vt 0.625 0.3047
vt 0.625 0.5
vt 0.625 0.6953
vt 0.625 0.7714
vt 0.625 0.8476
vt 0.625 0.9238
vt 0.5938 1
vt 0.6875 0.0762
vt 0.6562 0
vt 0.6875 0.1524
vt 0.6875 0.2286
vt 0.6875 0.3047
vt 0.6875 0.5
vt 0.6875 0.6953
vt 0.6875 0.7714
vt 0.6875 0.8476
vt 0.6875 0.9238
vt 0.6562 1
vt 0.75 0.0762
vt 0.7188 0
vt 0.75 0.1524
vt 0.75 0.2286
vt 0.75 0.3047
vt 0.75 0.5
vt 0.75 0.6953
vt 0.75 0.7714
vt 0.75 0.8476
vt 0.75 0.9238
vt 0.7188 1
vt 0.8125 0.0762
vt 0.7812 0
vt 0.8125 0.1524
vt 0.8125 0.2286
vt 0.8125 0.3047
vt 0.8125 0.5
vt 0.8125 0.6953
vt 0.8125 0.7714
vt 0.8125 0.8476
vt 0.8125 0.9238
vt 0.7812 1
vt 0.875 0.0762
vt 0.8438 0
vt 0.875 0.1524
vt 0.875 0.2286
vt 0.875 0.3047
vt 0.875 0.5
vt 0.875 0.6953
vt 0.875 0.7714
vt 0.875 0.8476
vt 0.875 0.9238
vt 0.8438 1
vt 0.9375 0.0762
vt 0.9062 0
vt 0.9375 0.1524
vt 0.9375 0.2286
vt 0.9375 0.3047
vt 0.9375 0.5
vt 0.9375 0.6953
vt 0.9375 0.7714
vt 0.9375 0.8476
vt 0.9375 0.9238
vt 0.9062 1
vt 1 0.0762
vt 0.9688 0
vt 1 0.1524
vt 1 0.2286
vt 1 0.3047
vt 1 0.5
vt 1 0.6953
vt 1 0.7714
vt 1 0.8476
vt 1 0.9238
vt 0.9688 1
# 147 normals
vn 0.988628 0.147478 -0.0294047
vn 0.890329 0.446565 -0.0888438
vn 0.657617 0.738864 -0.147034
vn 0.251854 0.949165 -0.188827
vn 0.000532391 0.980784 -0.195097
vn -0.251485 0.949259 -0.188846
vn -0.657626 0.738874 -0.146946
vn -0.89022 0.446781 -0.0888544
vn -0.988548 0.148012 -0.0294053
vn 0.988627 0.12497 -0.0836667
vn 0.890298 0.378549 -0.253121
vn 0.657604 0.626323 -0.41866
vn 0.251739 0.804662 -0.537723
vn 0.000399283 0.831465 -0.555577
vn -0.251609 0.804766 -0.537628
vn -0.657709 0.6264 -0.41838
vn -0.890271 0.37878 -0.252871
vn -0.988559 0.125504 -0.0836695
vn 0.988614 0.0833626 -0.125271
vn 0.890271 0.252871 -0.37878
vn 0.657511 0.418497 -0.626529
vn 0.251609 0.537628 -0.804766
vn 0.000266189 0.555577 -0.831465
vn -0.251739 0.537723 -0.804662
vn -0.657777 0.418618 -0.62617
vn -0.89028 0.253197 -0.378541
vn -0.988562 0.0839729 -0.125277
vn 0.988604 0.0291008 -0.147702
vn 0.890207 0.0886103 -0.446855
vn 0.657411 0.146861 -0.739082
vn 0.25149 0.188751 -0.949277
vn 0.000133098 0.195097 -0.980784
vn -0.251878 0.188845 -0.949155
vn -0.6579 0.147107 -0.738598
vn -0.890342 0.0890878 -0.446491
vn -0.988584 0.0297095 -0.147714
vn 0.988584 -0.0297095 -0.147714
vn 0.89014 -0.0891808 -0.446875
vn 0.657308 -0.147226 -0.739101
vn 0.251235 -0.188953 -0.949304
vn -0.000133098 -0.195097 -0.980784
vn -0.252128 -0.188737 -0.94911
vn -0.658003 -0.146743 -0.738579
vn -0.890409 -0.0885174 -0.446471
vn -0.988604 -0.0291008 -0.147702
vn 0.988562 -0.0839729 -0.125277
vn 0.890094 -0.253398 -0.378843
vn 0.65714 -0.418926 -0.626632
vn 0.251091 -0.53784 -0.804787
vn -0.000266189 -0.555577 -0.831465
vn -0.252244 -0.537582 -0.804598
vn -0.658105 -0.418147 -0.62614
vn -0.890474 -0.252594 -0.378487
vn -0.988614 -0.0833626 -0.125271
vn 0.988559 -0.125504 -0.0836695
vn 0.89004 -0.379143 -0.25314
vn 0.657078 -0.626844 -0.418707
vn 0.250961 -0.804891 -0.537744
vn -0.000399283 -0.831465 -0.555577
vn -0.000532378 -0.831465 -0.555577
vn -0.252387 -0.804537 -0.537607
vn -0.658198 -0.625934 -0.41831
vn -0.890529 -0.378186 -0.252852
vn -0.988627 -0.12497 -0.0836667
vn 0.988548 -0.148012 -0.0294053
vn 0.890024 -0.447168 -0.0888671
vn 0.657034 -0.739377 -0.147064
vn 0.250847 -0.949425 -0.188859
vn -0.000532391 -0.980784 -0.195097
vn -0.252492 -0.948998 -0.188814
vn -0.658277 -0.738302 -0.146904
vn -0.890557 -0.446113 -0.0888342
vn -0.988628 -0.147478 -0.0294047
vn 0.988548 -0.148012 0.0294053
vn 0.890024 -0.447168 0.0888671
vn 0.657034 -0.739377 0.147064
vn 0.250847 -0.949425 0.188859
vn -0.000532391 -0.980784 0.195097
vn -0.252492 -0.948998 0.188814
vn -0.658277 -0.738302 0.146904
vn -0.890557 -0.446113 0.0888342
vn -0.988628 -0.147478 0.0294047
vn 0.988559 -0.125504 0.0836695
vn 0.89004 -0.379143 0.25314
vn 0.657078 -0.626844 0.418707
vn 0.250961 -0.804891 0.537744
vn -0.000399283 -0.831465 0.555577
vn -0.000532378 -0.831465 0.555577
vn -0.252387 -0.804537 0.537607
vn -0.658198 -0.625934 0.41831
vn -0.890529 -0.378186 0.252852
vn -0.988627 -0.12497 0.0836667
vn 0.988562 -0.0839729 0.125277
vn 0.890094 -0.253398 0.378843
vn 0.65714 -0.418926 0.626632
vn 0.251091 -0.53784 0.804787
vn -0.000266189 -0.555577 0.831465
vn -0.252244 -0.537582 0.804598
vn -0.658105 -0.418147 0.62614
vn -0.890474 -0.252594 0.378487
vn -0.988614 -0.0833626 0.125271
vn 0.988584 -0.0297095 0.147714
vn 0.89014 -0.0891808 0.446875
vn 0.657308 -0.147226 0.739101
vn 0.251235 -0.188953 0.949304
vn -0.000133098 -0.195097 0.980784
vn -0.252128 -0.188737 0.94911
vn -0.658003 -0.146743 0.738579
vn -0.890409 -0.0885174 0.446471
vn -0.988604 -0.0291008 0.147702
vn 0.988604 0.0291008 0.147702
vn 0.890207 0.0886103 0.446855
vn 0.657411 0.146861 0.739082
vn 0.25149 0.188751 0.949277
vn 0.000133098 0.195097 0.980784
vn -0.251878 0.188845 0.949155
vn -0.6579 0.147107 0.738598
vn -0.890342 0.0890878 0.446491
vn -0.988584 0.0297095 0.147714
vn 0.988614 0.0833626 0.125271
vn 0.890271 0.252871 0.37878
vn 0.657511 0.418497 0.626529
vn 0.251609 0.537628 0.804766
vn 0.000266189 0.555577 0.831465
vn -0.251739 0.537723 0.804662
vn -0.657777 0.418618 0.62617
vn -0.89028 0.253197 0.378541
vn -0.988562 0.0839729 0.125277
vn 0.988627 0.12497 0.0836667
vn 0.890298 0.378549 0.253121
vn 0.657604 0.626323 0.41866
vn 0.251739 0.804662 0.537723
vn 0.000399283 0.831465 0.555577
vn -0.251609 0.804766 0.537628
vn -0.657709 0.6264 0.41838
vn -0.890271 0.37878 0.252871
vn -0.988559 0.125504 0.0836695
vn 0.988628 0.147478 0.0294047
vn 0.890329 0.446565 0.0888438
vn 0.657617 0.738864 0.147034
vn 0.251854 0.949165 0.188827
vn 0.000532391 0.980784 0.195097
vn -0.251485 0.949259 0.188846
vn -0.657626 0.738874 0.146946
vn -0.89022 0.446781 0.0888544
vn -0.988548 0.148012 0.0294053
vn 1 -0.000300526 0
usemtl ________
g Scene_Root
s off
f 1/1/1 2/3/1 3/2/1
f 1/1/2 4/5/2 5/4/2
f 1/1/2 5/4/2 2/3/2
f 4/5/3 6/7/3 7/6/3
f 4/5/3 7/6/3 5/4/3
f 6/7/4 8/9/4 9/8/4
f 6/7/4 9/8/4 7/6/4
f 8/9/5 10/11/5 11/10/5
f 8/9/5 11/10/5 9/8/5
f 12/11/5 13/13/5 14/12/5
f 12/11/5 14/12/5 15/10/5
f 13/13/6 16/15/6 17/14/6
f 13/13/6 17/14/6 14/12/6
f 16/15/7 18/17/7 19/16/7
f 16/15/7 19/16/7 17/14/7
f 18/17/8 20/19/8 21/18/8
f 18/17/8 21/18/8 19/16/8
f 20/19/9 22/20/9 21/18/9
f 23/21/10 1/1/10 3/22/10
f 23/21/11 24/23/11 4/5/11
f 23/21/11 4/5/11 1/1/11
f 24/23/12 25/24/12 6/7/12
f 24/23/12 6/7/12 4/5/12
f 25/24/13 26/25/13 8/9/13
f 25/24/13 8/9/13 6/7/13
f 26/25/14 27/26/14 10/11/14
f 26/25/14 10/11/14 8/9/14
f 28/26/14 29/27/14 13/13/14
f 28/26/14 13/13/14 12/11/14
f 29/27/15 30/28/15 16/15/15
f 29/27/15 16/15/15 13/13/15
f 30/28/16 31/29/16 18/17/16
f 30/28/16 18/17/16 16/15/16
f 31/29/17 32/30/17 20/19/17
f 31/29/17 20/19/17 18/17/17
f 32/30/18 22/31/18 20/19/18
f 33/32/19 23/21/19 3/33/19
f 33/32/20 34/34/20 24/23/20
f 33/32/20 24/23/20 23/21/20
f 34/34/21 35/35/21 25/24/21
f 34/34/21 25/24/21 24/23/21
f 35/35/22 36/36/22 26/25/22
f 35/35/22 26/25/22 25/24/22
f 36/36/23 37/37/23 27/26/23
f 36/36/23 27/26/23 26/25/23
f 38/37/23 39/38/23 29/27/23
f 38/37/23 29/27/23 28/26/23
f 39/38/24 40/39/24 30/28/24
f 39/38/24 30/28/24 29/27/24
f 40/39/25 41/40/25 31/29/25
f 40/39/25 31/29/25 30/28/25
f 41/40/26 42/41/26 32/30/26
f 41/40/26 32/30/26 31/29/26
f 42/41/27 22/42/27 32/30/27
f 43/43/28 33/32/28 3/44/28
f 43/43/29 44/45/29 34/34/29
f 43/43/29 34/34/29 33/32/29
f 44/45/30 45/46/30 35/35/30
f 44/45/30 35/35/30 34/34/30
f 45/46/31 46/47/31 36/36/31
f 45/46/31 36/36/31 35/35/31
f 46/47/32 47/48/32 37/37/32
f 46/47/32 37/37/32 36/36/32
f 48/48/32 49/49/32 39/38/32
f 48/48/32 39/38/32 38/37/32
f 49/49/33 50/50/33 40/39/33
f 49/49/33 40/39/33 39/38/33
f 50/50/34 51/51/34 41/40/34
f 50/50/34 41/40/34 40/39/34
f 51/51/35 52/52/35 42/41/35
f 51/51/35 42/41/35 41/40/35
f 52/52/36 22/53/36 42/41/36
f 53/54/37 43/43/37 3/55/37
f 53/54/38 54/56/38 44/45/38
f 53/54/38 44/45/38 43/43/38
f 54/56/39 55/57/39 45/46/39
f 54/56/39 45/46/39 44/45/39
f 55/57/40 56/58/40 46/47/40
f 55/57/40 46/47/40 45/46/40
f 56/58/41 57/59/41 47/48/41
f 56/58/41 47/48/41 46/47/41
f 58/59/41 59/60/41 49/49/41
f 58/59/41 49/49/41 48/48/41
f 59/60/42 60/61/42 50/50/42
f 59/60/42 50/50/42 49/49/42
f 60/61/43 61/62/43 51/51/43
f 60/61/43 51/51/43 50/50/43
f 61/62/44 62/63/44 52/52/44
f 61/62/44 52/52/44 51/51/44
f 62/63/45 22/64/45 52/52/45
f 63/65/46 53/54/46 3/66/46
f 63/65/47 64/67/47 54/56/47
f 63/65/47 54/56/47 53/54/47
f 64/67/48 65/68/48 55/57/48
f 64/67/48 55/57/48 54/56/48
f 65/68/49 66/69/49 56/58/49
f 65/68/49 56/58/49 55/57/49
f 66/69/50 67/70/50 57/59/50
f 66/69/50 57/59/50 56/58/50
f 68/70/50 69/71/50 59/60/50
f 68/70/50 59/60/50 58/59/50
f 69/71/51 70/72/51 60/61/51
f 69/71/51 60/61/51 59/60/51
f 70/72/52 71/73/52 61/62/52
f 70/72/52 61/62/52 60/61/52
f 71/73/53 72/74/53 62/63/53
f 71/73/53 62/63/53 61/62/53
f 72/74/54 22/75/54 62/63/54
f 73/76/55 63/65/55 3/77/55
f 73/76/56 74/78/56 64/67/56
f 73/76/56 64/67/56 63/65/56
f 74/78/57 75/79/57 65/68/57
f 74/78/57 65/68/57 64/67/57
f 75/79/58 76/80/58 66/69/58
f 75/79/58 66/69/58 65/68/58
f 76/80/59 77/81/59 67/70/59
f 76/80/59 67/70/59 66/69/59
f 78/81/60 79/82/60 69/71/60
f 78/81/60 69/71/60 68/70/60
f 79/82/61 80/83/61 70/72/61
f 79/82/61 70/72/61 69/71/61
f 80/83/62 81/84/62 71/73/62
f 80/83/62 71/73/62 70/72/62
f 81/84/63 82/85/63 72/74/63
f 81/84/63 72/74/63 71/73/63
f 82/85/64 22/86/64 72/74/64
f 83/87/65 73/76/65 3/88/65
f 83/87/66 84/89/66 74/78/66
f 83/87/66 74/78/66 73/76/66
f 84/89/67 85/90/67 75/79/67
f 84/89/67 75/79/67 74/78/67
f 85/90/68 86/91/68 76/80/68
f 85/90/68 76/80/68 75/79/68
f 86/91/69 87/92/69 77/81/69
f 86/91/69 77/81/69 76/80/69
f 88/92/69 89/93/69 79/82/69
f 88/92/69 79/82/69 78/81/69
f 89/93/70 90/94/70 80/83/70
f 89/93/70 80/83/70 79/82/70
f 90/94/71 91/95/71 81/84/71
f 90/94/71 81/84/71 80/83/71
f 91/95/72 92/96/72 82/85/72
f 91/95/72 82/85/72 81/84/72
f 92/96/73 22/97/73 82/85/73
f 93/98/74 83/87/74 3/99/74
f 93/98/75 94/100/75 84/89/75
f 93/98/75 84/89/75 83/87/75
f 94/100/76 95/101/76 85/90/76
f 94/100/76 85/90/76 84/89/76
f 95/101/77 96/102/77 86/91/77
f 95/101/77 86/91/77 85/90/77
f 96/102/78 97/103/78 87/92/78
f 96/102/78 87/92/78 86/91/78
f 98/103/78 99/104/78 89/93/78
f 98/103/78 89/93/78 88/92/78
f 99/104/79 100/105/79 90/94/79
f 99/104/79 90/94/79 89/93/79
f 100/105/80 101/106/80 91/95/80
f 100/105/80 91/95/80 90/94/80
f 101/106/81 102/107/81 92/96/81
f 101/106/81 92/96/81 91/95/81
f 102/107/82 22/108/82 92/96/82
f 103/109/83 93/98/83 3/110/83
f 103/109/84 104/111/84 94/100/84
f 103/109/84 94/100/84 93/98/84
f 104/111/85 105/112/85 95/101/85
f 104/111/85 95/101/85 94/100/85
f 105/112/86 106/113/86 96/102/86
f 105/112/86 96/102/86 95/101/86
f 106/113/87 107/114/87 97/103/87
f 106/113/87 97/103/87 96/102/87
f 108/114/88 109/115/88 99/104/88
f 108/114/88 99/104/88 98/103/88
f 109/115/89 110/116/89 100/105/89
f 109/115/89 100/105/89 99/104/89
f 110/116/90 111/117/90 101/106/90
f 110/116/90 101/106/90 100/105/90
f 111/117/91 112/118/91 102/107/91
f 111/117/91 102/107/91 101/106/91
f 112/118/92 22/119/92 102/107/92
f 113/120/93 103/109/93 3/121/93
f 113/120/94 114/122/94 104/111/94
f 113/120/94 104/111/94 103/109/94
f 114/122/95 115/123/95 105/112/95
f 114/122/95 105/112/95 104/111/95
f 115/123/96 116/124/96 106/113/96
f 115/123/96 106/113/96 105/112/96
f 116/124/97 117/125/97 107/114/97
f 116/124/97 107/114/97 106/113/97
f 118/125/97 119/126/97 109/115/97
f 118/125/97 109/115/97 108/114/97
f 119/126/98 120/127/98 110/116/98
f 119/126/98 110/116/98 109/115/98
f 120/127/99 121/128/99 111/117/99
f 120/127/99 111/117/99 110/116/99
f 121/128/100 122/129/100 112/118/100
f 121/128/100 112/118/100 111/117/100
f 122/129/101 22/130/101 112/118/101
f 123/131/102 113/120/102 3/132/102
f 123/131/103 124/133/103 114/122/103
f 123/131/103 114/122/103 113/120/103
f 124/133/104 125/134/104 115/123/104
f 124/133/104 115/123/104 114/122/104
f 125/134/105 126/135/105 116/124/105
f 125/134/105 116/124/105 115/123/105
f 126/135/106 127/136/106 117/125/106
f 126/135/106 117/125/106 116/124/106
f 128/136/106 129/137/106 119/126/106
f 128/136/106 119/126/106 118/125/106
f 129/137/107 130/138/107 120/127/107
f 129/137/107 120/127/107 119/126/107
f 130/138/108 131/139/108 121/128/108
f 130/138/108 121/128/108 120/127/108
f 131/139/109 132/140/109 122/129/109
f 131/139/109 122/129/109 121/128/109
f 132/140/110 22/141/110 122/129/110
f 133/142/111 123/131/111 3/143/111
f 133/142/112 134/144/112 124/133/112
f 133/142/112 124/133/112 123/131/112
f 134/144/113 135/145/113 125/134/113
f 134/144/113 125/134/113 124/133/113
f 135/145/114 136/146/114 126/135/114
f 135/145/114 126/135/114 125/134/114
f 136/146/115 137/147/115 127/136/115
f 136/146/115 127/136/115 126/135/115
f 138/147/115 139/148/115 129/137/115
f 138/147/115 129/137/115 128/136/115
f 139/148/116 140/149/116 130/138/116
f 139/148/116 130/138/116 129/137/116
f 140/149/117 141/150/117 131/139/117
f 140/149/117 131/139/117 130/138/117
f 141/150/118 142/151/118 132/140/118
f 141/150/118 132/140/118 131/139/118
f 142/151/119 22/152/119 132/140/119
f 143/153/120 133/142/120 3/154/120
f 143/153/121 144/155/121 134/144/121
f 143/153/121 134/144/121 133/142/121
f 144/155/122 145/156/122 135/145/122
f 144/155/122 135/145/122 134/144/122
f 145/156/123 146/157/123 136/146/123
f 145/156/123 136/146/123 135/145/123
f 146/157/124 147/158/124 137/147/124
f 146/157/124 137/147/124 136/146/124
f 148/158/124 149/159/124 139/148/124
f 148/158/124 139/148/124 138/147/124
f 149/159/125 150/160/125 140/149/125
f 149/159/125 140/149/125 139/148/125
f 150/160/126 151/161/126 141/150/126
f 150/160/126 141/150/126 140/149/126
f 151/161/127 152/162/127 142/151/127
f 151/161/127 142/151/127 141/150/127
f 152/162/128 22/163/128 142/151/128
f 153/164/129 143/153/129 3/165/129
f 153/164/130 154/166/130 144/155/130
f 153/164/130 144/155/130 143/153/130
f 154/166/131 155/167/131 145/156/131
f 154/166/131 145/156/131 144/155/131
f 155/167/132 156/168/132 146/157/132
f 155/167/132 146/157/132 145/156/132
f 156/168/133 157/169/133 147/158/133
f 156/168/133 147/158/133 146/157/133
f 158/169/133 159/170/133 149/159/133
f 158/169/133 149/159/133 148/158/133
f 159/170/134 160/171/134 150/160/134
f 159/170/134 150/160/134 149/159/134
f 160/171/135 161/172/135 151/161/135
f 160/171/135 151/161/135 150/160/135
f 161/172/136 162/173/136 152/162/136
f 161/172/136 152/162/136 151/161/136
f 162/173/137 22/174/137 152/162/137
f 2/175/138 153/164/138 3/176/138
f 2/175/139 5/177/139 154/166/139
f 2/175/139 154/166/139 153/164/139
f 5/177/140 7/178/140 155/167/140
f 5/177/140 155/167/140 154/166/140
f 7/178/141 9/179/141 156/168/141
f 7/178/141 156/168/141 155/167/141
f 9/179/142 11/180/142 157/169/142
f 9/179/142 157/169/142 156/168/142
f 15/180/142 14/181/142 159/170/142
f 15/180/142 159/170/142 158/169/142
f 14/181/143 17/182/143 160/171/143
f 14/181/143 160/171/143 159/170/143
f 17/182/144 19/183/144 161/172/144
f 17/182/144 161/172/144 160/171/144
f 19/183/145 21/184/145 162/173/145
f 19/183/145 162/173/145 161/172/145
f 21/184/146 22/185/146 162/173/146
f 10/11/147 12/11/147 15/180/147
f 10/11/147 15/180/147 11/180/147
f 27/26/147 28/26/147 12/11/147
f 27/26/147 12/11/147 10/11/147
f 37/37/147 38/37/147 28/26/147
f 37/37/147 28/26/147 27/26/147
f 47/48/147 48/48/147 38/37/147
f 47/48/147 38/37/147 37/37/147
f 57/59/147 58/59/147 48/48/147
f 57/59/147 48/48/147 47/48/147
f 67/70/147 68/70/147 58/59/147
f 67/70/147 58/59/147 57/59/147
f 77/81/147 78/81/147 68/70/147
f 77/81/147 68/70/147 67/70/147
f 87/92/147 88/92/147 78/81/147
f 87/92/147 78/81/147 77/81/147
f 97/103/147 98/103/147 88/92/147
f 97/103/147 88/92/147 87/92/147
f 107/114/147 108/114/147 98/103/147
f 107/114/147 98/103/147 97/103/147
f 117/125/147 118/125/147 108/114/147
f 117/125/147 108/114/147 107/114/147
f 127/136/147 128/136/147 118/125/147
f 127/136/147 118/125/147 117/125/147
f 137/147/147 138/147/147 128/136/147
f 137/147/147 128/136/147 127/136/147
f 147/158/147 148/158/147 138/147/147
f 147/158/147 138/147/147 137/147/147
f 157/169/147 158/169/147 148/158/147
f 157/169/147 148/158/147 147/158/147
f 11/180/147 15/180/147 158/169/147
f 11/180/147 158/169/147 157/169/147
