# Wavefront OBJ
# Created by fragMOTION 1.3.5
# http://www.fragmosoft.com

mtllib wallet.mtl
# 92 vertices
v -75 1.47216e-005 100
v 75 15 100
v -75 15 100
v 75 1.42784e-005 100
v -75 1.57216e-005 110
v -75 10.6066 107.071
v -75 5.74027 109.239
v -75 13.8582 103.827
v 75 13.8582 103.827
v 75 5.74027 109.239
v 75 10.6066 107.071
v 75 1.62784e-005 110
v 75 -15 100
v -75 -15 100
v -75 -13.8582 103.827
v -75 -5.74024 109.239
v -75 -10.6066 107.071
v 75 -10.6066 107.071
v 75 -5.74024 109.239
v 75 -13.8582 103.827
v -80 1.15031e-005 75
v 20 -1.31258e-005 -75
v 20 1.08742e-005 75
v -80 -1.34969e-005 -75
v -63 -5.00001 -95
v 63 4.99998 -95
v -63 4.99998 -95
v 63 -5.00001 -95
v -70 -4.99998 100
v -69.4672 -5.00001 -88.9811
v -70 -5.00001 -85.25
v -65.6788 -5.00001 -94.2578
v -67.9498 -5.00001 -92.1443
v 67.9498 -5.00001 -92.1443
v 65.6788 -5.00001 -94.2578
v 70 -5.00001 -85.25
v 69.4672 -5.00001 -88.9811
v 70 -4.99999 100
v -70 5.00001 100
v 70 5.00001 100
v 69.4672 4.99998 -88.9811
v 70 4.99998 -85.25
v 65.6788 4.99998 -94.2578
v 67.9498 4.99998 -92.1443
v -67.9498 4.99998 -92.1443
v -65.6788 4.99998 -94.2578
v -70 4.99999 -85.25
v -69.4672 4.99999 -88.9811
v -60 4.99998 -100
v 60 15 -100
v -60 15 -100
v 60 4.99998 -100
v -75 5.00001 100
v -73.8582 4.99999 -87.6536
v -75 4.99999 -80
v -65.7403 4.99998 -98.4776
v -70.6066 4.99998 -94.1421
v 70.6066 4.99998 -94.1421
v 65.7403 4.99998 -98.4776
v 75 4.99999 -80
v 73.8582 4.99999 -87.6536
v 75 5.00001 100
v 73.8582 15 -87.6536
v 75 15 -80
v 65.7403 15 -98.4776
v 70.6066 15 -94.1421
v -70.6066 15 -94.1421
v -65.7403 15 -98.4776
v -75 15 -80
v -73.8582 15 -87.6536
v -60 -5.00002 -100
v 60 -15 -100
v 60 -5.00002 -100
v -60 -15 -100
v -73.8582 -5.00001 -87.6537
v -75 -4.99998 100
v -75 -5.00001 -80
v 75 -5.00001 -80
v 75 -4.99999 100
v 70.6066 -5.00002 -94.1421
v 73.8582 -5.00001 -87.6537
v 65.7403 -5.00002 -98.4776
v -65.7403 -5.00001 -98.4776
v -70.6066 -5.00002 -94.1421
v 73.8582 -15 -87.6536
v 75 -15 -80
v -75 -15 -80
v -70.6066 -15 -94.1421
v -73.8582 -15 -87.6536
v -65.7403 -15 -98.4776
v 65.7403 -15 -98.4776
v 70.6066 -15 -94.1421
# 153 texture vertices
vt 0.975386 -0.916136
vt 0.790454 -0.864167
vt 0.975386 -0.864167
vt 0.790454 -0.916136
vt 0.523879 -0.916136
vt 0.51155 -0.916136
vt 0.515161 -0.879389
vt 0.512489 -0.896248
vt 0.523879 -0.864167
vt 0.519161 -0.868123
vt 0.0735 -0.823166
vt 0.056762 -0.122565
vt 0.0735 -0.122565
vt 0.056762 -0.823166
vt 0.49155 -0.868123
vt 0.306619 -0.879389
vt 0.306619 -0.868123
vt 0.49155 -0.879389
vt 0.306619 -0.896248
vt 0.49155 -0.896248
vt 0.306619 -0.916136
vt 0.49155 -0.916136
vt 0.790454 -0.968105
vt 0.975386 -0.968105
vt 0.280454 -0.916136
vt 0.268126 -0.916136
vt 0.272844 -0.964149
vt 0.268126 -0.968105
vt 0.279516 -0.936023
vt 0.276843 -0.952883
vt 0.029761 -0.823166
vt 0.029761 -0.122566
vt 0.515161 -0.952883
vt 0.512489 -0.936023
vt 0.523879 -0.968105
vt 0.519161 -0.964149
vt 0.49155 -0.964149
vt 0.306619 -0.952883
vt 0.49155 -0.952883
vt 0.306619 -0.964149
vt 0.306619 -0.936023
vt 0.49155 -0.936023
vt 0.182847 -0.028919
vt 0.838933 -0.495986
vt 0.182847 -0.495986
vt 0.838933 -0.028919
vt 0.960591 -0.933459
vt 0.805249 -0.898813
vt 0.960591 -0.898813
vt 0.805249 -0.933459
vt 0.073503 -0.799812
vt 0.900089 -0.797324
vt 0.883769 -0.799812
vt 0.923168 -0.779629
vt 0.913924 -0.790236
vt 0.926415 -0.178613
vt 0.926415 -0.767118
vt 0.913924 -0.155495
vt 0.923168 -0.166102
vt 0.883769 -0.145919
vt 0.900089 -0.148407
vt 0.073503 -0.145919
vt 0.485386 -0.933459
vt 0.312783 -0.898813
vt 0.485386 -0.898813
vt 0.312783 -0.933459
vt 0.752269 -0.933459
vt 0.523879 -0.898813
vt 0.752269 -0.898813
vt 0.523879 -0.933459
vt 0.963894 -0.933459
vt 0.963894 -0.898813
vt 0.966694 -0.933459
vt 0.966694 -0.898813
vt 0.031235 -0.898813
vt 0.035135 -0.933459
vt 0.031235 -0.933459
vt 0.035135 -0.898813
vt 0.039735 -0.933459
vt 0.039735 -0.898813
vt 0.756869 -0.933459
vt 0.756869 -0.898813
vt 0.760769 -0.933459
vt 0.760769 -0.898813
vt 0.799146 -0.898813
vt 0.801946 -0.933459
vt 0.799146 -0.933459
vt 0.801946 -0.898813
vt 0.268126 -0.933459
vt 0.268126 -0.898813
vt 0.956893 -0.898813
vt 0.808948 -0.864167
vt 0.956893 -0.864167
vt 0.808948 -0.898813
vt 0.894282 -0.817833
vt 0.860806 -0.823166
vt 0.941625 -0.779917
vt 0.922662 -0.802646
vt 0.948284 -0.192625
vt 0.948284 -0.753106
vt 0.922662 -0.143085
vt 0.941625 -0.165815
vt 0.860806 -0.122565
vt 0.894282 -0.127898
vt 0.49155 -0.898813
vt 0.306619 -0.864167
vt 0.49155 -0.864167
vt 0.306619 -0.898813
vt 0.745797 -0.898813
vt 0.745797 -0.864167
vt 0.96397 -0.864167
vt 0.969969 -0.898813
vt 0.969969 -0.864167
vt 0.028772 -0.864167
vt 0.036772 -0.898813
vt 0.028772 -0.898813
vt 0.036772 -0.864167
vt 0.046208 -0.898813
vt 0.046208 -0.864167
vt 0.755233 -0.898813
vt 0.755233 -0.864167
vt 0.763232 -0.898813
vt 0.763232 -0.864167
vt 0.795871 -0.864167
vt 0.795871 -0.898813
vt 0.80187 -0.864167
vt 0.268126 -0.864167
vt 0.956893 -0.933459
vt 0.808948 -0.968105
vt 0.808948 -0.933459
vt 0.956893 -0.968105
vt 0.49155 -0.933459
vt 0.306619 -0.968105
vt 0.306619 -0.933459
vt 0.49155 -0.968105
vt 0.745797 -0.933459
vt 0.745797 -0.968105
vt 0.96397 -0.968105
vt 0.969969 -0.933459
vt 0.969969 -0.968105
vt 0.028772 -0.968105
vt 0.036772 -0.933459
vt 0.036772 -0.968105
vt 0.028772 -0.933459
vt 0.046208 -0.933459
vt 0.046208 -0.968105
vt 0.755233 -0.933459
vt 0.755233 -0.968105
vt 0.763232 -0.933459
vt 0.763232 -0.968105
vt 0.795871 -0.968105
vt 0.80187 -0.968105
vt 0.795871 -0.933459
# 67 normals
vn -0.666667 0.333333 -0.666667
vn 0.675989 0.729183 0.106449
vn -0.675989 0.729183 0.106449
vn 0.666667 0.333333 -0.666667
vn -0.710183 -3.10431e-008 0.704018
vn -0.894433 0.447201 0
vn -0.668434 0.420983 0.613163
vn -0.676265 0.200356 0.708889
vn -0.655746 0.648238 0.38702
vn 0.655746 0.648238 0.38702
vn 0.676265 0.200356 0.708889
vn 0.668434 0.420983 0.613163
vn 0.710183 3.10431e-008 0.704018
vn 0.894433 0.447201 0
vn 0.675989 -0.729183 0.106449
vn -0.675989 -0.729183 0.106449
vn -0.655746 -0.648238 0.38702
vn -0.676265 -0.200355 0.708889
vn -0.668434 -0.420983 0.613163
vn 0.668434 -0.420983 0.613163
vn 0.676265 -0.200355 0.708889
vn 0.655763 -0.648225 0.387012
vn -4.37114e-008 1 0
vn -0.0990029 -0.678005 -0.72836
vn 0.099003 0.678004 -0.72836
vn -0.0990031 0.678004 -0.72836
vn 0.099003 -0.678005 -0.72836
vn -0.57735 -0.57735 0.57735
vn -0.70655 -0.674414 -0.214367
vn -0.720558 -0.691503 -0.051181
vn -0.367792 -0.657392 -0.657697
vn -0.599742 -0.667557 -0.441223
vn 0.599742 -0.667557 -0.441223
vn 0.367791 -0.657392 -0.657697
vn 0.720558 -0.691504 -0.051181
vn 0.70655 -0.674414 -0.214367
vn 0.57735 -0.57735 0.57735
vn -0.57735 0.57735 0.57735
vn 0.57735 0.57735 0.57735
vn 0.70655 0.674413 -0.214367
vn 0.720558 0.691503 -0.051181
vn 0.367792 0.657392 -0.657697
vn 0.599742 0.667557 -0.441223
vn -0.599742 0.667557 -0.441223
vn -0.367791 0.657392 -0.657697
vn -0.720558 0.691504 -0.051181
vn -0.70655 0.674413 -0.214367
vn -0.094823 -0.679145 -0.727853
vn 0.0948229 0.679145 -0.727854
vn -0.094823 0.679145 -0.727854
vn 0.0948231 -0.679145 -0.727853
vn -0.704953 -0.673305 -0.222939
vn -0.721041 -0.690827 -0.053469
vn -0.35656 -0.658399 -0.662854
vn -0.591334 -0.667113 -0.453084
vn 0.591334 -0.667113 -0.453084
vn 0.35656 -0.658399 -0.662854
vn 0.72104 -0.690827 -0.053469
vn 0.704953 -0.673305 -0.222939
vn 0.704953 0.673305 -0.22294
vn 0.721041 0.690827 -0.053469
vn 0.35656 0.658398 -0.662855
vn 0.591334 0.667113 -0.453084
vn -0.591334 0.667113 -0.453084
vn -0.35656 0.658399 -0.662855
vn -0.72104 0.690827 -0.053469
vn -0.704953 0.673305 -0.22294
usemtl Texture
g Scene_Root
s off
f 1/1/1 3/3/3 2/2/2
f 1/1/1 2/2/2 4/4/4
f 1/5/1 5/6/6 5/6/5
f 5/6/5 7/8/8 6/7/7
f 6/7/7 8/10/9 3/9/3
f 3/9/3 1/5/1 5/6/5
f 5/6/5 6/7/7 3/9/3
f 4/5/4 2/9/2 9/10/10
f 9/10/10 11/7/12 10/8/11
f 12/6/13 12/6/14 4/5/4
f 9/10/10 10/8/11 12/6/13
f 4/5/4 9/10/10 12/6/13
f 2/11/2 3/13/3 8/12/9
f 2/11/2 8/12/9 9/14/10
f 9/15/10 8/17/9 6/16/7
f 9/15/10 6/16/7 11/18/12
f 11/18/12 6/16/7 7/19/8
f 11/18/12 7/19/8 10/20/11
f 10/20/11 7/19/8 5/21/5
f 10/20/11 5/21/5 12/22/13
f 1/1/1 4/4/4 13/23/15
f 1/1/1 13/23/15 14/24/16
f 5/25/5 5/25/6 1/26/1
f 1/26/1 14/28/16 15/27/17
f 15/27/17 17/30/19 16/29/18
f 16/29/18 5/25/5 1/26/1
f 1/26/1 15/27/17 16/29/18
f 1/13/1 5/32/6 12/31/14
f 1/13/1 12/31/14 4/11/4
f 4/5/4 12/6/14 12/6/13
f 12/6/13 19/34/21 18/33/20
f 18/33/20 20/36/22 13/35/15
f 13/35/15 4/5/4 12/6/13
f 12/6/13 18/33/20 13/35/15
f 13/13/15 20/12/22 15/14/17
f 13/13/15 15/14/17 14/11/16
f 20/37/22 18/39/20 17/38/19
f 20/37/22 17/38/19 15/40/17
f 18/39/20 19/42/21 16/41/18
f 18/39/20 16/41/18 17/38/19
f 19/42/21 12/22/13 5/21/5
f 19/42/21 5/21/5 16/41/18
f 12/6/14 5/6/6 5/6/5
f 12/6/14 5/6/5 12/6/13
f 21/43/23 23/45/23 22/44/23
f 21/43/23 22/44/23 24/46/23
f 25/47/24 27/49/26 26/48/25
f 25/47/24 26/48/25 28/50/27
f 29/51/28 31/53/30 30/52/29
f 30/52/29 33/55/32 32/54/31
f 32/54/31 25/57/24 28/56/27
f 28/56/27 35/59/34 34/58/33
f 34/58/33 37/61/36 36/60/35
f 36/60/35 38/62/37 29/51/28
f 29/51/28 30/52/29 32/54/31
f 32/54/31 28/56/27 34/58/33
f 34/58/33 36/60/35 29/51/28
f 32/54/31 34/58/33 29/51/28
f 38/63/37 40/65/39 39/64/38
f 38/63/37 39/64/38 29/66/28
f 40/51/39 42/53/41 41/52/40
f 41/52/40 44/55/43 43/54/42
f 43/54/42 26/57/25 27/56/26
f 27/56/26 46/59/45 45/58/44
f 45/58/44 48/61/47 47/60/46
f 47/60/46 39/62/38 40/51/39
f 40/51/39 41/52/40 43/54/42
f 43/54/42 27/56/26 45/58/44
f 45/58/44 47/60/46 40/51/39
f 43/54/42 45/58/44 40/51/39
f 36/67/35 42/69/41 40/68/39
f 36/67/35 40/68/39 38/70/37
f 27/49/26 25/47/24 32/71/31
f 27/49/26 32/71/31 46/72/45
f 46/72/45 32/71/31 33/73/32
f 46/72/45 33/73/32 45/74/44
f 45/75/44 33/77/32 30/76/29
f 45/75/44 30/76/29 48/78/47
f 48/78/47 30/76/29 31/79/30
f 48/78/47 31/79/30 47/80/46
f 42/69/41 36/67/35 37/81/36
f 42/69/41 37/81/36 41/82/40
f 41/82/40 37/81/36 34/83/33
f 41/82/40 34/83/33 44/84/43
f 44/85/43 34/87/33 35/86/34
f 44/85/43 35/86/34 43/88/42
f 43/88/42 35/86/34 28/50/27
f 43/88/42 28/50/27 26/48/25
f 29/89/28 39/90/38 47/80/46
f 29/89/28 47/80/46 31/79/30
f 49/91/48 51/93/50 50/92/49
f 49/91/48 50/92/49 52/94/51
f 53/11/28 55/96/53 54/95/52
f 54/95/52 57/98/55 56/97/54
f 56/97/54 49/100/48 52/99/51
f 52/99/51 59/102/57 58/101/56
f 58/101/56 61/104/59 60/103/58
f 60/103/58 62/13/37 53/11/28
f 53/11/28 54/95/52 56/97/54
f 56/97/54 52/99/51 58/101/56
f 58/101/56 60/103/58 53/11/28
f 56/97/54 58/101/56 53/11/28
f 62/105/37 2/107/2 3/106/3
f 62/105/37 3/106/3 53/108/28
f 2/11/2 64/96/61 63/95/60
f 63/95/60 66/98/63 65/97/62
f 65/97/62 50/100/49 51/99/50
f 51/99/50 68/102/65 67/101/64
f 67/101/64 70/104/67 69/103/66
f 69/103/66 3/13/3 2/11/2
f 2/11/2 63/95/60 65/97/62
f 65/97/62 51/99/50 67/101/64
f 67/101/64 69/103/66 2/11/2
f 65/97/62 67/101/64 2/11/2
f 60/109/58 64/110/61 2/9/2
f 60/109/58 2/9/2 62/68/37
f 51/93/50 49/91/48 56/72/54
f 51/93/50 56/72/54 68/111/65
f 68/111/65 56/72/54 57/112/55
f 68/111/65 57/112/55 67/113/64
f 67/114/64 57/116/55 54/115/52
f 67/114/64 54/115/52 70/117/67
f 70/117/67 54/115/52 55/118/53
f 70/117/67 55/118/53 69/119/66
f 64/110/61 60/109/58 61/120/59
f 64/110/61 61/120/59 63/121/60
f 63/121/60 61/120/59 58/122/56
f 63/121/60 58/122/56 66/123/63
f 66/124/63 58/125/56 59/88/57
f 66/124/63 59/88/57 65/126/62
f 65/126/62 59/88/57 52/94/51
f 65/126/62 52/94/51 50/92/49
f 53/90/28 3/127/3 69/119/66
f 53/90/28 69/119/66 55/118/53
f 71/128/50 73/130/49 72/129/51
f 71/128/50 72/129/51 74/131/48
f 75/104/67 77/103/66 76/13/38
f 76/13/38 79/11/39 78/96/61
f 78/96/61 81/95/60 80/98/63
f 80/98/63 82/97/62 73/100/49
f 73/100/49 71/99/50 83/102/65
f 83/102/65 84/101/64 75/104/67
f 75/104/67 76/13/38 78/96/61
f 78/96/61 80/98/63 73/100/49
f 73/100/49 83/102/65 75/104/67
f 78/96/61 73/100/49 75/104/67
f 79/132/39 76/134/38 14/133/16
f 79/132/39 14/133/16 13/135/15
f 85/104/59 86/103/58 13/13/15
f 13/13/15 14/11/16 87/96/53
f 87/96/53 89/95/52 88/98/55
f 88/98/55 90/97/54 74/100/48
f 74/100/48 72/99/51 91/102/57
f 91/102/57 92/101/56 85/104/59
f 85/104/59 13/13/15 87/96/53
f 87/96/53 88/98/55 74/100/48
f 74/100/48 91/102/57 85/104/59
f 87/96/53 74/100/48 85/104/59
f 78/136/61 79/70/39 13/35/15
f 78/136/61 13/35/15 86/137/58
f 74/131/48 90/138/54 83/71/65
f 74/131/48 83/71/65 71/128/50
f 90/138/54 88/140/55 84/139/64
f 90/138/54 84/139/64 83/71/65
f 88/141/55 89/143/52 75/142/67
f 88/141/55 75/142/67 84/144/64
f 89/143/52 87/146/53 77/145/66
f 89/143/52 77/145/66 75/142/67
f 86/137/58 85/148/59 81/147/60
f 86/137/58 81/147/60 78/136/61
f 85/148/59 92/150/56 80/149/63
f 85/148/59 80/149/63 81/147/60
f 92/151/56 91/152/57 82/86/62
f 92/151/56 82/86/62 80/153/63
f 91/152/57 72/129/51 73/130/49
f 91/152/57 73/130/49 82/86/62
f 76/89/38 77/145/66 87/146/53
f 76/89/38 87/146/53 14/28/16
